<?xml version="1.0" encoding="UTF-8"?>
<svg xmlns="http://www.w3.org/2000/svg" version="1.1" width="100" height="100" viewBox="0 0 100 100"><rect x="0" y="0" width="100" height="100" fill="#ffffff"/><g transform="scale(3.448)"><g transform="translate(0,0)"><path fill-rule="evenodd" d="M9 0L9 1L11 1L11 2L9 2L9 3L8 3L8 5L9 5L9 6L8 6L8 7L9 7L9 9L10 9L10 10L8 10L8 8L5 8L5 9L4 9L4 10L2 10L2 8L0 8L0 10L2 10L2 12L1 12L1 11L0 11L0 12L1 12L1 14L2 14L2 15L0 15L0 16L2 16L2 17L3 17L3 19L7 19L7 18L6 18L6 17L7 17L7 16L6 16L6 15L8 15L8 19L9 19L9 20L8 20L8 24L9 24L9 27L8 27L8 29L12 29L12 27L13 27L13 26L10 26L10 25L14 25L14 23L16 23L16 24L15 24L15 27L16 27L16 28L15 28L15 29L16 29L16 28L17 28L17 29L18 29L18 28L17 28L17 27L18 27L18 26L19 26L19 25L23 25L23 26L22 26L22 28L21 28L21 29L23 29L23 28L25 28L25 29L27 29L27 27L28 27L28 28L29 28L29 27L28 27L28 26L29 26L29 23L27 23L27 22L26 22L26 21L29 21L29 20L26 20L26 21L25 21L25 19L24 19L24 18L28 18L28 19L29 19L29 17L27 17L27 14L29 14L29 12L28 12L28 13L26 13L26 17L24 17L24 18L23 18L23 17L22 17L22 16L24 16L24 15L23 15L23 11L24 11L24 12L25 12L25 9L26 9L26 10L28 10L28 9L26 9L26 8L24 8L24 10L23 10L23 11L22 11L22 12L21 12L21 15L19 15L19 14L20 14L20 11L21 11L21 10L22 10L22 9L21 9L21 8L19 8L19 9L18 9L18 8L17 8L17 6L18 6L18 7L19 7L19 5L20 5L20 4L21 4L21 1L20 1L20 2L19 2L19 5L17 5L17 6L16 6L16 8L14 8L14 7L15 7L15 5L16 5L16 4L18 4L18 3L17 3L17 2L16 2L16 0L13 0L13 1L12 1L12 0ZM17 0L17 1L18 1L18 0ZM13 1L13 2L12 2L12 4L11 4L11 7L10 7L10 6L9 6L9 7L10 7L10 8L11 8L11 10L10 10L10 11L8 11L8 12L7 12L7 11L6 11L6 10L7 10L7 9L5 9L5 10L4 10L4 11L3 11L3 12L2 12L2 14L3 14L3 15L2 15L2 16L3 16L3 17L4 17L4 16L5 16L5 14L9 14L9 15L10 15L10 16L9 16L9 19L10 19L10 20L9 20L9 24L12 24L12 23L13 23L13 22L12 22L12 21L14 21L14 22L15 22L15 20L16 20L16 19L15 19L15 20L14 20L14 19L12 19L12 18L15 18L15 17L14 17L14 16L13 16L13 17L12 17L12 15L13 15L13 14L12 14L12 13L13 13L13 12L14 12L14 11L15 11L15 10L14 10L14 8L13 8L13 9L12 9L12 6L13 6L13 7L14 7L14 6L13 6L13 5L12 5L12 4L14 4L14 2L15 2L15 3L16 3L16 2L15 2L15 1ZM9 3L9 5L10 5L10 3ZM20 6L20 7L21 7L21 6ZM16 8L16 11L17 11L17 14L19 14L19 11L20 11L20 10L18 10L18 9L17 9L17 8ZM11 10L11 11L10 11L10 12L8 12L8 13L10 13L10 15L11 15L11 12L12 12L12 11L13 11L13 10ZM5 11L5 12L6 12L6 13L7 13L7 12L6 12L6 11ZM15 12L15 13L16 13L16 12ZM3 13L3 14L4 14L4 13ZM24 13L24 14L25 14L25 13ZM3 15L3 16L4 16L4 15ZM15 15L15 16L16 16L16 17L17 17L17 16L18 16L18 15ZM21 15L21 16L22 16L22 15ZM28 15L28 16L29 16L29 15ZM10 16L10 18L11 18L11 16ZM19 16L19 17L20 17L20 18L21 18L21 20L22 20L22 19L23 19L23 20L24 20L24 19L23 19L23 18L22 18L22 17L20 17L20 16ZM0 17L0 21L1 21L1 19L2 19L2 18L1 18L1 17ZM17 18L17 20L19 20L19 18ZM11 19L11 20L10 20L10 21L12 21L12 19ZM2 20L2 21L3 21L3 20ZM6 20L6 21L7 21L7 20ZM16 21L16 23L17 23L17 24L16 24L16 25L18 25L18 24L20 24L20 23L17 23L17 22L20 22L20 21ZM21 21L21 24L24 24L24 21ZM10 22L10 23L11 23L11 22ZM22 22L22 23L23 23L23 22ZM25 23L25 25L24 25L24 26L23 26L23 27L24 27L24 26L26 26L26 27L25 27L25 28L26 28L26 27L27 27L27 26L28 26L28 25L27 25L27 23ZM9 27L9 28L10 28L10 27ZM19 27L19 28L20 28L20 27ZM0 0L0 7L7 7L7 0ZM1 1L1 6L6 6L6 1ZM2 2L2 5L5 5L5 2ZM22 0L22 7L29 7L29 0ZM23 1L23 6L28 6L28 1ZM24 2L24 5L27 5L27 2ZM0 22L0 29L7 29L7 22ZM1 23L1 28L6 28L6 23ZM2 24L2 27L5 27L5 24Z" fill="#000000"/></g></g></svg>
