<?xml version="1.0" encoding="UTF-8"?>
<svg xmlns="http://www.w3.org/2000/svg" version="1.1" width="100" height="100" viewBox="0 0 100 100"><rect x="0" y="0" width="100" height="100" fill="#ffffff"/><g transform="scale(3.448)"><g transform="translate(0,0)"><path fill-rule="evenodd" d="M9 0L9 1L8 1L8 3L9 3L9 4L8 4L8 8L6 8L6 9L4 9L4 8L3 8L3 10L1 10L1 9L2 9L2 8L0 8L0 10L1 10L1 12L0 12L0 14L2 14L2 13L1 13L1 12L3 12L3 11L4 11L4 10L6 10L6 11L5 11L5 12L4 12L4 13L5 13L5 15L4 15L4 14L3 14L3 15L1 15L1 16L0 16L0 17L1 17L1 16L2 16L2 19L3 19L3 21L8 21L8 23L9 23L9 25L8 25L8 26L9 26L9 27L8 27L8 29L9 29L9 28L10 28L10 26L11 26L11 28L12 28L12 29L14 29L14 28L12 28L12 24L14 24L14 25L13 25L13 27L15 27L15 24L16 24L16 25L17 25L17 27L16 27L16 28L15 28L15 29L16 29L16 28L17 28L17 29L21 29L21 27L20 27L20 28L19 28L19 27L18 27L18 26L19 26L19 24L20 24L20 26L23 26L23 27L22 27L22 29L23 29L23 27L25 27L25 28L24 28L24 29L25 29L25 28L26 28L26 27L27 27L27 29L28 29L28 27L29 27L29 26L28 26L28 25L29 25L29 24L28 24L28 22L29 22L29 21L27 21L27 20L29 20L29 17L28 17L28 15L29 15L29 14L25 14L25 16L26 16L26 15L27 15L27 17L28 17L28 18L27 18L27 20L26 20L26 22L27 22L27 23L25 23L25 18L26 18L26 17L25 17L25 18L23 18L23 17L24 17L24 13L23 13L23 12L25 12L25 13L26 13L26 12L27 12L27 13L29 13L29 12L28 12L28 10L29 10L29 9L28 9L28 8L26 8L26 9L25 9L25 8L22 8L22 10L24 10L24 9L25 9L25 11L23 11L23 12L22 12L22 13L23 13L23 14L21 14L21 15L20 15L20 19L21 19L21 20L20 20L20 23L18 23L18 22L17 22L17 21L16 21L16 23L15 23L15 22L14 22L14 21L15 21L15 20L16 20L16 19L17 19L17 20L18 20L18 21L19 21L19 20L18 20L18 19L19 19L19 17L18 17L18 16L19 16L19 15L18 15L18 12L19 12L19 11L20 11L20 12L21 12L21 10L19 10L19 9L17 9L17 8L20 8L20 9L21 9L21 8L20 8L20 7L21 7L21 6L20 6L20 5L21 5L21 3L20 3L20 5L18 5L18 7L17 7L17 6L16 6L16 5L17 5L17 4L16 4L16 3L14 3L14 2L17 2L17 3L18 3L18 4L19 4L19 3L18 3L18 2L19 2L19 1L21 1L21 0L16 0L16 1L15 1L15 0L12 0L12 1L11 1L11 2L9 2L9 1L10 1L10 0ZM17 1L17 2L18 2L18 1ZM12 3L12 4L9 4L9 5L10 5L10 6L9 6L9 7L10 7L10 8L8 8L8 9L6 9L6 10L7 10L7 11L6 11L6 12L5 12L5 13L6 13L6 14L8 14L8 15L10 15L10 16L12 16L12 17L11 17L11 19L12 19L12 20L13 20L13 21L14 21L14 20L15 20L15 19L16 19L16 16L15 16L15 17L13 17L13 16L12 16L12 14L11 14L11 15L10 15L10 14L9 14L9 13L12 13L12 12L13 12L13 15L16 15L16 14L17 14L17 13L16 13L16 12L14 12L14 11L16 11L16 9L15 9L15 8L17 8L17 7L16 7L16 6L15 6L15 8L14 8L14 6L13 6L13 3ZM11 5L11 6L10 6L10 7L11 7L11 6L12 6L12 8L13 8L13 6L12 6L12 5ZM19 6L19 7L20 7L20 6ZM10 8L10 10L9 10L9 9L8 9L8 10L9 10L9 11L11 11L11 10L12 10L12 9L11 9L11 8ZM14 9L14 10L15 10L15 9ZM26 9L26 10L28 10L28 9ZM17 11L17 12L18 12L18 11ZM25 11L25 12L26 12L26 11ZM6 12L6 13L8 13L8 12ZM19 13L19 14L20 14L20 13ZM6 15L6 16L3 16L3 19L4 19L4 17L6 17L6 18L5 18L5 20L8 20L8 21L9 21L9 22L10 22L10 25L9 25L9 26L10 26L10 25L11 25L11 20L9 20L9 19L10 19L10 18L9 18L9 16L7 16L7 15ZM6 16L6 17L7 17L7 18L6 18L6 19L7 19L7 18L8 18L8 17L7 17L7 16ZM21 16L21 19L23 19L23 18L22 18L22 17L23 17L23 16ZM17 17L17 18L18 18L18 17ZM0 18L0 19L1 19L1 18ZM13 18L13 20L14 20L14 18ZM0 20L0 21L1 21L1 20ZM21 21L21 24L24 24L24 21ZM22 22L22 23L23 23L23 22ZM14 23L14 24L15 24L15 23ZM16 23L16 24L18 24L18 23ZM25 24L25 25L27 25L27 24ZM23 25L23 26L24 26L24 25ZM27 26L27 27L28 27L28 26ZM0 0L0 7L7 7L7 0ZM1 1L1 6L6 6L6 1ZM2 2L2 5L5 5L5 2ZM22 0L22 7L29 7L29 0ZM23 1L23 6L28 6L28 1ZM24 2L24 5L27 5L27 2ZM0 22L0 29L7 29L7 22ZM1 23L1 28L6 28L6 23ZM2 24L2 27L5 27L5 24Z" fill="#000000"/></g></g></svg>
